<svg xmlns="http://www.w3.org/2000/svg" xmlns:xlink="http://www.w3.org/1999/xlink" id="Laag_1" viewBox="0 0 291.34 103.28" width="500"  height="177.25" ><defs><style>.cls-1{fill:none;}.cls-2{clip-path:url(#clippath);}.cls-3{fill:#f58625;}.cls-4{fill:#676866;}.cls-5{fill:#eb6200;}.cls-6{fill:#f4831f;}.cls-7{fill:#6b9f1b;}.cls-8{fill:#88004e;}.cls-9{fill:#8bb20d;}.cls-10{fill:#c1c700;}.cls-11{fill:#db0967;}.cls-12{fill:#e33f00;}</style><clipPath id="clippath"><rect class="cls-1" x="12.18" y="7.83" width="268.33" height="87.61"/></clipPath></defs><g id="Group_689"><g id="Group_437"><rect id="Rectangle_33" class="cls-9" x="95.59" y="69.11" width="5.75" height="5.75"/><rect id="Rectangle_34" class="cls-10" x="77.18" y="69.11" width="16.68" height="5.75"/><path id="Path_26" class="cls-3" d="M51.87,69.11v23.01h-6.9v-1.73l2.88-1.15v-14.38h-10.36v-5.75h14.38Z"/><rect id="Rectangle_35" class="cls-9" x="19.65" y="61.63" width="5.75" height="13.23"/><rect id="Rectangle_36" class="cls-9" x="12.18" y="69.11" width="5.75" height="5.75"/><g id="Group_29"><g class="cls-2"><g id="Group_28"><path id="Path_27" class="cls-10" d="M17.93,67.38h-5.75v-2.88c0-1.59,1.29-2.88,2.88-2.88h2.88v5.75Z"/><path id="Path_28" class="cls-10" d="M25.41,52.43h-5.75v-2.88c0-1.59,1.29-2.88,2.88-2.88h2.88v5.75Z"/><path id="Path_29" class="cls-10" d="M32.89,36.32h-5.75v-2.88c0-1.59,1.29-2.88,2.88-2.88h2.88v5.75Z"/><path id="Path_30" class="cls-10" d="M88.11,51.85v-5.75h2.88c1.59,0,2.88,1.29,2.88,2.88h0v2.88h-5.75Z"/><path id="Path_31" class="cls-8" d="M95.59,67.38v-5.75h2.88c1.59,0,2.88,1.29,2.88,2.88h0v2.88h-5.75Z"/><rect id="Rectangle_37" class="cls-10" x="34.61" y="46.68" width="5.75" height="13.23"/><rect id="Rectangle_38" class="cls-7" x="42.09" y="54.15" width="5.75" height="13.23"/><rect id="Rectangle_39" class="cls-5" x="49.57" y="54.15" width="5.75" height="13.23"/><rect id="Rectangle_40" class="cls-5" x="57.05" y="61.63" width="14.38" height="5.75"/><rect id="Rectangle_41" class="cls-9" x="57.05" y="54.15" width="14.38" height="5.75"/><rect id="Rectangle_42" class="cls-12" x="73.15" y="54.15" width="5.75" height="13.23"/><rect id="Rectangle_43" class="cls-10" x="80.63" y="46.1" width="5.75" height="21.28"/><rect id="Rectangle_44" class="cls-3" x="88.11" y="53.58" width="5.75" height="13.81"/><rect id="Rectangle_45" class="cls-6" x="27.13" y="61.63" width="13.23" height="5.75"/><rect id="Rectangle_46" class="cls-9" x="27.13" y="46.68" width="5.75" height="5.75"/><rect id="Rectangle_47" class="cls-5" x="34.61" y="39.2" width="5.75" height="5.75"/><path id="Path_32" class="cls-10" d="M55.9,31.72v5.75h-8.05v7.48h-5.75v-13.23h13.81Z"/><path id="Path_33" class="cls-10" d="M86.38,26.54v8.63h-5.75v-5.75h-5.75v-5.75h8.63c1.59,0,2.88,1.29,2.88,2.88"/><path id="Path_34" class="cls-10" d="M47.84,7.83v5.75h-7.33v7.21h-5.75V10.71c0-1.59,1.29-2.88,2.88-2.88h10.2Z"/><rect id="Rectangle_48" class="cls-9" x="57.62" y="31.72" width="12.66" height="5.75"/><rect id="Rectangle_49" class="cls-9" x="50.14" y="16.19" width="11.51" height="5.75"/><path id="Path_35" class="cls-3" d="M55.32,39.2v13.23h-13.23v-5.75h7.48v-7.48h5.75Z"/><rect id="Rectangle_50" class="cls-7" x="57.05" y="46.68" width="5.75" height="5.75"/><rect id="Rectangle_51" class="cls-8" x="72" y="39.2" width="6.9" height="5.75"/><path id="Path_36" class="cls-11" d="M78.87,46.68v5.75h-14.34v-7.48h-6.9v-5.75h12.66v7.48h8.59Z"/><rect id="Rectangle_52" class="cls-11" x="19.65" y="54.15" width="13.23" height="5.75"/><rect id="Rectangle_53" class="cls-10" x="27.13" y="69.11" width="8.63" height="5.75"/><path id="Path_37" class="cls-3" d="M75.45,69.11v5.75h-10.35v14.38l2.88,1.15v1.73h-6.9v-23.01h14.38Z"/><rect id="Rectangle_54" class="cls-5" x="53.59" y="69.11" width="5.75" height="23.01"/><path id="Path_38" class="cls-4" d="M140.88,55.2v-3.54h-5.75v23.21h5.75v-11.75c0-4.41,2.05-5.73,5.47-5.73h1.52v-6.06c-2.86-.07-5.53,1.41-6.99,3.88"/><path id="Path_39" class="cls-4" d="M165.61,64.23c0,3.67-1.97,5.65-5.1,5.65s-5.05-1.98-5.05-5.65v-12.57h-5.75v13.4c0,6.27,3.82,9.73,9.12,9.73,2.63,.07,5.14-1.11,6.78-3.17v3.37h5.8v-23.33h-5.8v12.57Z"/><path id="Path_40" class="cls-4" d="M127.11,46.01h-3.9c-1.05,0-1.9,.85-1.9,1.9h0v3.75h-2.71v4.74h2.71v11.38c0,5.24,2.92,7.09,7.27,7.09h3.62v-4.87h-2.67c-1.81,0-2.42-.66-2.42-2.18v-11.42h5.1v-4.74h-5.1v-5.65Z"/><path id="Path_41" class="cls-4" d="M246.35,51.32c-3.19-.03-6.16,1.63-7.81,4.37-1.63-2.85-4.73-4.54-8.01-4.37-2.59-.08-5.07,1.07-6.7,3.09v-2.76h-5.75v23.21h5.75v-12.99c0-3.63,2.01-5.52,5.14-5.52s5.05,1.9,5.05,5.52v12.99h5.75v-12.99c0-3.63,2.01-5.52,5.1-5.52s5.05,1.9,5.05,5.52v12.99h5.75v-13.77c0-6.31-3.86-9.77-9.33-9.77"/><path id="Path_42" class="cls-4" d="M280.51,62.58c0-6.8-4.64-11.3-11.22-11.3s-11.42,4.58-11.42,11.79,4.81,11.79,11.42,11.79c5.63,0,9.41-3.34,10.65-7.54h-6.21c-.8,1.78-2.61,2.88-4.56,2.76-2.95,.07-5.39-2.26-5.46-5.2,0-.02,0-.05,0-.07h16.65c.12-.74,.17-1.48,.16-2.23m-16.77-1.65c.21-2.81,2.57-4.96,5.38-4.91,2.96,0,5.34,1.9,5.42,4.91h-10.81Z"/><path id="Path_43" class="cls-4" d="M185.22,51.28c-6.74,0-11.42,4.58-11.42,11.79s4.81,11.79,11.42,11.79c5.63,0,9.41-3.34,10.65-7.54h-6.21c-.8,1.78-2.61,2.88-4.56,2.76-2.95,.07-5.39-2.26-5.46-5.2,0-.03,0-.05,0-.08h16.65c.12-.74,.17-1.48,.16-2.23,0-6.8-4.64-11.3-11.22-11.3m-5.55,9.65c.21-2.81,2.57-4.96,5.38-4.91,2.96,0,5.34,1.9,5.42,4.91h-10.81Z"/><rect id="Rectangle_55" class="cls-4" x="208.45" y="51.65" width="5.75" height="23.21"/><rect id="Rectangle_56" class="cls-4" x="198.83" y="43.22" width="5.75" height="31.64"/><path id="Path_44" class="cls-4" d="M214.2,49h-5.75v-5.77h3.85c1.05,0,1.9,.85,1.9,1.9h0s0,3.87,0,3.87Z"/></g></g></g></g></g></svg>